<svg viewBox="0 0 8 8" xmlns="http://www.w3.org/2000/svg" shape-rendering="crispEdges" width="180mm" height="180mm"><rect x="0" y="0" width="8" height="8" fill="black"></rect><rect width="1" height="1" x="1" y="1" fill="black"></rect><rect width="1" height="1" x="2" y="1" fill="white"></rect><rect width="1" height="1" x="3" y="1" fill="black"></rect><rect width="1" height="1" x="4" y="1" fill="black"></rect><rect width="1" height="1" x="5" y="1" fill="black"></rect><rect width="1" height="1" x="6" y="1" fill="black"></rect><rect width="1" height="1" x="1" y="2" fill="white"></rect><rect width="1" height="1" x="2" y="2" fill="black"></rect><rect width="1" height="1" x="3" y="2" fill="black"></rect><rect width="1" height="1" x="4" y="2" fill="white"></rect><rect width="1" height="1" x="5" y="2" fill="white"></rect><rect width="1" height="1" x="6" y="2" fill="black"></rect><rect width="1" height="1" x="1" y="3" fill="white"></rect><rect width="1" height="1" x="2" y="3" fill="black"></rect><rect width="1" height="1" x="3" y="3" fill="black"></rect><rect width="1" height="1" x="4" y="3" fill="black"></rect><rect width="1" height="1" x="5" y="3" fill="white"></rect><rect width="1" height="1" x="6" y="3" fill="black"></rect><rect width="1" height="1" x="1" y="4" fill="white"></rect><rect width="1" height="1" x="2" y="4" fill="white"></rect><rect width="1" height="1" x="3" y="4" fill="black"></rect><rect width="1" height="1" x="4" y="4" fill="white"></rect><rect width="1" height="1" x="5" y="4" fill="black"></rect><rect width="1" height="1" x="6" y="4" fill="black"></rect><rect width="1" height="1" x="1" y="5" fill="black"></rect><rect width="1" height="1" x="2" y="5" fill="black"></rect><rect width="1" height="1" x="3" y="5" fill="black"></rect><rect width="1" height="1" x="4" y="5" fill="white"></rect><rect width="1" height="1" x="5" y="5" fill="white"></rect><rect width="1" height="1" x="6" y="5" fill="white"></rect><rect width="1" height="1" x="1" y="6" fill="white"></rect><rect width="1" height="1" x="2" y="6" fill="white"></rect><rect width="1" height="1" x="3" y="6" fill="black"></rect><rect width="1" height="1" x="4" y="6" fill="white"></rect><rect width="1" height="1" x="5" y="6" fill="black"></rect><rect width="1" height="1" x="6" y="6" fill="white"></rect></svg>